<svg id="visual" viewBox="0 0 1920 1080" width="1920" height="1080" xmlns="http://www.w3.org/2000/svg" xmlns:xlink="http://www.w3.org/1999/xlink" version="1.1"><g stroke-width="1" stroke-linejoin="bevel"><path d="M962 518L929 410L811.9 560Z" fill="#01121e" stroke="#01121e"></path><path d="M929 410L800.9 406L811.9 560Z" fill="#00101c" stroke="#00101c"></path><path d="M800.9 406L685.7 523L811.9 560Z" fill="#01121e" stroke="#01121e"></path><path d="M800.9 406L687.7 439L685.7 523Z" fill="#061b28" stroke="#061b28"></path><path d="M786.9 680L997 640L811.9 560Z" fill="#061b28" stroke="#061b28"></path><path d="M811.9 560L997 640L962 518Z" fill="#051d29" stroke="#051d29"></path><path d="M929 410L821.9 285L800.9 406Z" fill="#051a26" stroke="#051a26"></path><path d="M800.9 406L670.7 284L687.7 439Z" fill="#041722" stroke="#041722"></path><path d="M722.7 689L786.9 680L811.9 560Z" fill="#051e2b" stroke="#051e2b"></path><path d="M997 640L1080.1 554L962 518Z" fill="#051824" stroke="#051824"></path><path d="M962 518L1133.1 406L929 410Z" fill="#041722" stroke="#041722"></path><path d="M929 410L933 249L821.9 285Z" fill="#061b28" stroke="#061b28"></path><path d="M1085.1 238L933 249L929 410Z" fill="#051e2b" stroke="#051e2b"></path><path d="M685.7 523L722.7 689L811.9 560Z" fill="#041722" stroke="#041722"></path><path d="M1080.1 554L1133.1 406L962 518Z" fill="#051824" stroke="#051824"></path><path d="M712.7 172L670.7 284L821.9 285Z" fill="#05202d" stroke="#05202d"></path><path d="M821.9 285L670.7 284L800.9 406Z" fill="#051824" stroke="#051824"></path><path d="M687.7 439L577.6 507L685.7 523Z" fill="#061b28" stroke="#061b28"></path><path d="M533.6 427L577.6 507L687.7 439Z" fill="#051e2b" stroke="#051e2b"></path><path d="M685.7 523L548.6 684L722.7 689Z" fill="#061b28" stroke="#061b28"></path><path d="M689.7 778L851.9 790L786.9 680Z" fill="#02131f" stroke="#02131f"></path><path d="M786.9 680L851.9 790L997 640Z" fill="#00101c" stroke="#00101c"></path><path d="M986 817L1125.1 689L997 640Z" fill="#051824" stroke="#051824"></path><path d="M997 640L1125.1 689L1080.1 554Z" fill="#051d29" stroke="#051d29"></path><path d="M1080.1 554L1199.3 521L1133.1 406Z" fill="#02131f" stroke="#02131f"></path><path d="M1133.1 406L1085.1 238L929 410Z" fill="#02131f" stroke="#02131f"></path><path d="M1198.3 676L1199.3 521L1080.1 554Z" fill="#05202d" stroke="#05202d"></path><path d="M1133.1 406L1206.3 271L1085.1 238Z" fill="#05202d" stroke="#05202d"></path><path d="M1085.1 238L985 166L933 249Z" fill="#05202d" stroke="#05202d"></path><path d="M814.9 107L712.7 172L821.9 285Z" fill="#051e2b" stroke="#051e2b"></path><path d="M670.7 284L533.6 427L687.7 439Z" fill="#051a26" stroke="#051a26"></path><path d="M548.6 684L689.7 778L722.7 689Z" fill="#061b28" stroke="#061b28"></path><path d="M722.7 689L689.7 778L786.9 680Z" fill="#00101c" stroke="#00101c"></path><path d="M548.6 684L685.7 523L577.6 507Z" fill="#01121e" stroke="#01121e"></path><path d="M1082.1 849L986 817L975 933Z" fill="#031521" stroke="#031521"></path><path d="M851.9 790L986 817L997 640Z" fill="#01121e" stroke="#01121e"></path><path d="M814.9 107L821.9 285L933 249Z" fill="#031521" stroke="#031521"></path><path d="M670.7 284L533.6 291L533.6 427Z" fill="#061b28" stroke="#061b28"></path><path d="M1248.3 842L1198.3 676L1125.1 689Z" fill="#051824" stroke="#051824"></path><path d="M1125.1 689L1198.3 676L1080.1 554Z" fill="#00101c" stroke="#00101c"></path><path d="M441.4 511L548.6 684L577.6 507Z" fill="#031521" stroke="#031521"></path><path d="M985 166L814.9 107L933 249Z" fill="#051d29" stroke="#051d29"></path><path d="M556.6 103L533.6 291L670.7 284Z" fill="#05202d" stroke="#05202d"></path><path d="M1389.4 516L1247.3 372L1199.3 521Z" fill="#02131f" stroke="#02131f"></path><path d="M1199.3 521L1247.3 372L1133.1 406Z" fill="#041722" stroke="#041722"></path><path d="M1247.3 372L1206.3 271L1133.1 406Z" fill="#051d29" stroke="#051d29"></path><path d="M1085.1 238L1092.1 142L985 166Z" fill="#061b28" stroke="#061b28"></path><path d="M1204.3 160L1092.1 142L1085.1 238Z" fill="#041722" stroke="#041722"></path><path d="M956 0L815.9 0L814.9 107Z" fill="#051a26" stroke="#051a26"></path><path d="M986 817L1082.1 849L1125.1 689Z" fill="#01121e" stroke="#01121e"></path><path d="M975 933L986 817L851.9 790Z" fill="#061b28" stroke="#061b28"></path><path d="M424.4 431L441.4 511L533.6 427Z" fill="#00101c" stroke="#00101c"></path><path d="M533.6 427L441.4 511L577.6 507Z" fill="#031521" stroke="#031521"></path><path d="M533.6 291L424.4 431L533.6 427Z" fill="#00101c" stroke="#00101c"></path><path d="M840.9 976L975 933L851.9 790Z" fill="#051a26" stroke="#051a26"></path><path d="M1344.4 279L1204.3 160L1206.3 271Z" fill="#02131f" stroke="#02131f"></path><path d="M1206.3 271L1204.3 160L1085.1 238Z" fill="#051a26" stroke="#051a26"></path><path d="M548.6 684L570.6 849L689.7 778Z" fill="#01121e" stroke="#01121e"></path><path d="M689.7 778L840.9 976L851.9 790Z" fill="#051d29" stroke="#051d29"></path><path d="M420.4 787L570.6 849L548.6 684Z" fill="#00101c" stroke="#00101c"></path><path d="M556.6 103L440.4 267L533.6 291Z" fill="#05202d" stroke="#05202d"></path><path d="M533.6 291L440.4 267L424.4 431Z" fill="#01121e" stroke="#01121e"></path><path d="M556.6 103L670.7 284L712.7 172Z" fill="#02131f" stroke="#02131f"></path><path d="M956 0L814.9 107L985 166Z" fill="#051e2b" stroke="#051e2b"></path><path d="M814.9 107L672.7 0L712.7 172Z" fill="#061b28" stroke="#061b28"></path><path d="M956 0L985 166L1079.1 0Z" fill="#051a26" stroke="#051a26"></path><path d="M654.7 966L840.9 976L689.7 778Z" fill="#00101c" stroke="#00101c"></path><path d="M1079.1 0L985 166L1092.1 142Z" fill="#05202d" stroke="#05202d"></path><path d="M672.7 0L556.6 103L712.7 172Z" fill="#051a26" stroke="#051a26"></path><path d="M1248.3 842L1125.1 689L1082.1 849Z" fill="#051d29" stroke="#051d29"></path><path d="M1371.4 784L1352.4 641L1198.3 676Z" fill="#00101c" stroke="#00101c"></path><path d="M1198.3 676L1352.4 641L1199.3 521Z" fill="#051824" stroke="#051824"></path><path d="M1247.3 372L1344.4 279L1206.3 271Z" fill="#031521" stroke="#031521"></path><path d="M1401.4 371L1344.4 279L1247.3 372Z" fill="#041722" stroke="#041722"></path><path d="M1116.1 953L1248.3 842L1082.1 849Z" fill="#02131f" stroke="#02131f"></path><path d="M420.4 787L574.6 910L570.6 849Z" fill="#00101c" stroke="#00101c"></path><path d="M570.6 849L654.7 966L689.7 778Z" fill="#061b28" stroke="#061b28"></path><path d="M1352.4 641L1389.4 516L1199.3 521Z" fill="#02131f" stroke="#02131f"></path><path d="M815.9 0L672.7 0L814.9 107Z" fill="#02131f" stroke="#02131f"></path><path d="M975 933L1116.1 953L1082.1 849Z" fill="#061b28" stroke="#061b28"></path><path d="M1099.1 1080L1116.1 953L975 933Z" fill="#05202d" stroke="#05202d"></path><path d="M574.6 910L654.7 966L570.6 849Z" fill="#05202d" stroke="#05202d"></path><path d="M267.3 523L373.4 659L441.4 511Z" fill="#051d29" stroke="#051d29"></path><path d="M441.4 511L373.4 659L548.6 684Z" fill="#00101c" stroke="#00101c"></path><path d="M267.3 523L441.4 511L424.4 431Z" fill="#051d29" stroke="#051d29"></path><path d="M1234.3 0L1079.1 0L1092.1 142Z" fill="#041722" stroke="#041722"></path><path d="M1234.3 0L1092.1 142L1204.3 160Z" fill="#041722" stroke="#041722"></path><path d="M1389.4 516L1401.4 371L1247.3 372Z" fill="#051e2b" stroke="#051e2b"></path><path d="M373.4 659L420.4 787L548.6 684Z" fill="#01121e" stroke="#01121e"></path><path d="M1388.4 984L1371.4 784L1248.3 842Z" fill="#051a26" stroke="#051a26"></path><path d="M1248.3 842L1371.4 784L1198.3 676Z" fill="#05202d" stroke="#05202d"></path><path d="M1352.4 641L1471.6 548L1389.4 516Z" fill="#031521" stroke="#031521"></path><path d="M1389.4 516L1546.6 407L1401.4 371Z" fill="#01121e" stroke="#01121e"></path><path d="M1195.3 1080L1234.3 950L1116.1 953Z" fill="#05202d" stroke="#05202d"></path><path d="M1116.1 953L1234.3 950L1248.3 842Z" fill="#051a26" stroke="#051a26"></path><path d="M698.7 1080L828.9 1080L840.9 976Z" fill="#061b28" stroke="#061b28"></path><path d="M840.9 976L945 1080L975 933Z" fill="#00101c" stroke="#00101c"></path><path d="M556.6 103L381.4 148L440.4 267Z" fill="#051824" stroke="#051824"></path><path d="M672.7 0L527.6 0L556.6 103Z" fill="#05202d" stroke="#05202d"></path><path d="M394.4 0L381.4 148L556.6 103Z" fill="#05202d" stroke="#05202d"></path><path d="M276.3 368L267.3 523L424.4 431Z" fill="#00101c" stroke="#00101c"></path><path d="M828.9 1080L945 1080L840.9 976Z" fill="#051e2b" stroke="#051e2b"></path><path d="M1520.6 676L1471.6 548L1352.4 641Z" fill="#051824" stroke="#051824"></path><path d="M276.3 368L424.4 431L440.4 267Z" fill="#01121e" stroke="#01121e"></path><path d="M373.4 659L291.3 848L420.4 787Z" fill="#051a26" stroke="#051a26"></path><path d="M1389.4 164L1204.3 160L1344.4 279Z" fill="#02131f" stroke="#02131f"></path><path d="M1389.4 164L1234.3 0L1204.3 160Z" fill="#051e2b" stroke="#051e2b"></path><path d="M267.3 523L284.3 639L373.4 659Z" fill="#051d29" stroke="#051d29"></path><path d="M293.3 241L276.3 368L440.4 267Z" fill="#051d29" stroke="#051d29"></path><path d="M1509.6 263L1389.4 164L1344.4 279Z" fill="#02131f" stroke="#02131f"></path><path d="M1509.6 263L1344.4 279L1401.4 371Z" fill="#061b28" stroke="#061b28"></path><path d="M654.7 966L698.7 1080L840.9 976Z" fill="#051d29" stroke="#051d29"></path><path d="M578.6 1080L698.7 1080L654.7 966Z" fill="#051e2b" stroke="#051e2b"></path><path d="M578.6 1080L654.7 966L574.6 910Z" fill="#051824" stroke="#051824"></path><path d="M381.4 148L293.3 241L440.4 267Z" fill="#041722" stroke="#041722"></path><path d="M945 1080L1099.1 1080L975 933Z" fill="#041722" stroke="#041722"></path><path d="M423.4 1080L578.6 1080L574.6 910Z" fill="#05202d" stroke="#05202d"></path><path d="M381.4 969L574.6 910L420.4 787Z" fill="#031521" stroke="#031521"></path><path d="M1546.6 407L1509.6 263L1401.4 371Z" fill="#051824" stroke="#051824"></path><path d="M1389.4 164L1389.4 0L1234.3 0Z" fill="#05202d" stroke="#05202d"></path><path d="M1371.4 784L1520.6 676L1352.4 641Z" fill="#061b28" stroke="#061b28"></path><path d="M1471.6 548L1546.6 407L1389.4 516Z" fill="#051a26" stroke="#051a26"></path><path d="M1507.6 847L1520.6 676L1371.4 784Z" fill="#051d29" stroke="#051d29"></path><path d="M1388.4 984L1248.3 842L1234.3 950Z" fill="#031521" stroke="#031521"></path><path d="M1099.1 1080L1195.3 1080L1116.1 953Z" fill="#061b28" stroke="#061b28"></path><path d="M1617.7 439L1546.6 407L1471.6 548Z" fill="#01121e" stroke="#01121e"></path><path d="M527.6 0L394.4 0L556.6 103Z" fill="#031521" stroke="#031521"></path><path d="M381.4 148L251.3 102L293.3 241Z" fill="#051d29" stroke="#051d29"></path><path d="M279.3 925L291.3 848L155.1 911Z" fill="#051a26" stroke="#051a26"></path><path d="M284.3 639L291.3 848L373.4 659Z" fill="#051824" stroke="#051824"></path><path d="M291.3 848L381.4 969L420.4 787Z" fill="#051e2b" stroke="#051e2b"></path><path d="M1632.7 243L1491.6 169L1509.6 263Z" fill="#031521" stroke="#031521"></path><path d="M1509.6 263L1491.6 169L1389.4 164Z" fill="#041722" stroke="#041722"></path><path d="M1476.6 0L1389.4 0L1389.4 164Z" fill="#01121e" stroke="#01121e"></path><path d="M1352.4 1080L1388.4 984L1234.3 950Z" fill="#031521" stroke="#031521"></path><path d="M292.3 0L251.3 102L381.4 148Z" fill="#00101c" stroke="#00101c"></path><path d="M142.1 304L136.1 415L276.3 368Z" fill="#051e2b" stroke="#051e2b"></path><path d="M276.3 368L136.1 415L267.3 523Z" fill="#061b28" stroke="#061b28"></path><path d="M1474.6 933L1507.6 847L1371.4 784Z" fill="#051824" stroke="#051824"></path><path d="M1661.7 566L1617.7 439L1471.6 548Z" fill="#031521" stroke="#031521"></path><path d="M167.1 820L291.3 848L284.3 639Z" fill="#031521" stroke="#031521"></path><path d="M291.3 848L279.3 925L381.4 969Z" fill="#031521" stroke="#031521"></path><path d="M381.4 969L423.4 1080L574.6 910Z" fill="#05202d" stroke="#05202d"></path><path d="M125.1 680L284.3 639L267.3 523Z" fill="#051d29" stroke="#051d29"></path><path d="M142.1 304L276.3 368L293.3 241Z" fill="#05202d" stroke="#05202d"></path><path d="M244.3 1080L423.4 1080L381.4 969Z" fill="#051a26" stroke="#051a26"></path><path d="M1661.7 566L1471.6 548L1520.6 676Z" fill="#041722" stroke="#041722"></path><path d="M1546.6 407L1632.7 243L1509.6 263Z" fill="#031521" stroke="#031521"></path><path d="M1388.4 984L1474.6 933L1371.4 784Z" fill="#051e2b" stroke="#051e2b"></path><path d="M172.1 99L142.1 304L293.3 241Z" fill="#051d29" stroke="#051d29"></path><path d="M394.4 0L292.3 0L381.4 148Z" fill="#05202d" stroke="#05202d"></path><path d="M251.3 102L172.1 99L293.3 241Z" fill="#05202d" stroke="#05202d"></path><path d="M1195.3 1080L1352.4 1080L1234.3 950Z" fill="#051e2b" stroke="#051e2b"></path><path d="M1388.4 984L1481.6 1080L1474.6 933Z" fill="#051e2b" stroke="#051e2b"></path><path d="M0 522L102.1 524L0 383Z" fill="#051a26" stroke="#051a26"></path><path d="M136.1 415L102.1 524L267.3 523Z" fill="#051824" stroke="#051824"></path><path d="M102.1 524L125.1 680L267.3 523Z" fill="#00101c" stroke="#00101c"></path><path d="M1615.7 0L1476.6 0L1491.6 169Z" fill="#01121e" stroke="#01121e"></path><path d="M1491.6 169L1476.6 0L1389.4 164Z" fill="#02131f" stroke="#02131f"></path><path d="M125.1 680L167.1 820L284.3 639Z" fill="#061b28" stroke="#061b28"></path><path d="M279.3 925L244.3 1080L381.4 969Z" fill="#061b28" stroke="#061b28"></path><path d="M1615.7 781L1520.6 676L1507.6 847Z" fill="#00101c" stroke="#00101c"></path><path d="M1671.7 692L1661.7 566L1520.6 676Z" fill="#051d29" stroke="#051d29"></path><path d="M1617.7 439L1632.7 243L1546.6 407Z" fill="#061b28" stroke="#061b28"></path><path d="M1773.9 257L1632.7 243L1617.7 439Z" fill="#051d29" stroke="#051d29"></path><path d="M1643.7 916L1615.7 781L1507.6 847Z" fill="#00101c" stroke="#00101c"></path><path d="M1643.7 916L1507.6 847L1474.6 933Z" fill="#061b28" stroke="#061b28"></path><path d="M153.1 0L172.1 99L251.3 102Z" fill="#051a26" stroke="#051a26"></path><path d="M0 383L102.1 524L136.1 415Z" fill="#061b28" stroke="#061b28"></path><path d="M1615.7 781L1671.7 692L1520.6 676Z" fill="#00101c" stroke="#00101c"></path><path d="M0 795L167.1 820L125.1 680Z" fill="#051824" stroke="#051824"></path><path d="M0 795L155.1 911L167.1 820Z" fill="#051d29" stroke="#051d29"></path><path d="M167.1 820L155.1 911L291.3 848Z" fill="#02131f" stroke="#02131f"></path><path d="M1773.9 257L1635.7 145L1632.7 243Z" fill="#00101c" stroke="#00101c"></path><path d="M1632.7 243L1635.7 145L1491.6 169Z" fill="#041722" stroke="#041722"></path><path d="M1773.9 257L1617.7 439L1815.9 433Z" fill="#02131f" stroke="#02131f"></path><path d="M1352.4 1080L1481.6 1080L1388.4 984Z" fill="#051e2b" stroke="#051e2b"></path><path d="M1615.7 781L1752.9 777L1671.7 692Z" fill="#051824" stroke="#051824"></path><path d="M155.1 911L244.3 1080L279.3 925Z" fill="#031521" stroke="#031521"></path><path d="M292.3 0L153.1 0L251.3 102Z" fill="#051e2b" stroke="#051e2b"></path><path d="M0 296L0 383L142.1 304Z" fill="#051824" stroke="#051824"></path><path d="M0 383L136.1 415L142.1 304Z" fill="#041722" stroke="#041722"></path><path d="M102.1 524L0 661L125.1 680Z" fill="#061b28" stroke="#061b28"></path><path d="M0 296L142.1 304L0 115Z" fill="#02131f" stroke="#02131f"></path><path d="M1612.7 1080L1643.7 916L1474.6 933Z" fill="#01121e" stroke="#01121e"></path><path d="M1635.7 145L1615.7 0L1491.6 169Z" fill="#00101c" stroke="#00101c"></path><path d="M0 522L0 661L102.1 524Z" fill="#051d29" stroke="#051d29"></path><path d="M155.1 911L105.1 1080L244.3 1080Z" fill="#00101c" stroke="#00101c"></path><path d="M0 115L142.1 304L172.1 99Z" fill="#051d29" stroke="#051d29"></path><path d="M0 661L0 795L125.1 680Z" fill="#041722" stroke="#041722"></path><path d="M1643.7 916L1752.9 777L1615.7 781Z" fill="#051a26" stroke="#051a26"></path><path d="M1671.7 692L1785.9 699L1661.7 566Z" fill="#02131f" stroke="#02131f"></path><path d="M1635.7 145L1788.9 141L1615.7 0Z" fill="#02131f" stroke="#02131f"></path><path d="M1815.9 433L1617.7 439L1661.7 566Z" fill="#031521" stroke="#031521"></path><path d="M1752.9 777L1785.9 699L1671.7 692Z" fill="#00101c" stroke="#00101c"></path><path d="M1785.9 699L1812.9 534L1661.7 566Z" fill="#031521" stroke="#031521"></path><path d="M1812.9 534L1815.9 433L1661.7 566Z" fill="#051a26" stroke="#051a26"></path><path d="M153.1 0L0 115L172.1 99Z" fill="#061b28" stroke="#061b28"></path><path d="M1481.6 1080L1612.7 1080L1474.6 933Z" fill="#051824" stroke="#051824"></path><path d="M1643.7 916L1772.9 909L1752.9 777Z" fill="#02131f" stroke="#02131f"></path><path d="M0 984L105.1 1080L155.1 911Z" fill="#01121e" stroke="#01121e"></path><path d="M1920 251L1788.9 141L1773.9 257Z" fill="#051d29" stroke="#051d29"></path><path d="M1773.9 257L1788.9 141L1635.7 145Z" fill="#01121e" stroke="#01121e"></path><path d="M1920 638L1920 529L1812.9 534Z" fill="#051824" stroke="#051824"></path><path d="M1920 781L1920 638L1785.9 699Z" fill="#00101c" stroke="#00101c"></path><path d="M1814.9 1080L1772.9 909L1643.7 916Z" fill="#041722" stroke="#041722"></path><path d="M153.1 0L0 0L0 115Z" fill="#061b28" stroke="#061b28"></path><path d="M0 795L0 984L155.1 911Z" fill="#051d29" stroke="#051d29"></path><path d="M1920 638L1812.9 534L1785.9 699Z" fill="#051a26" stroke="#051a26"></path><path d="M1812.9 534L1920 529L1815.9 433Z" fill="#00101c" stroke="#00101c"></path><path d="M1815.9 433L1920 370L1773.9 257Z" fill="#051e2b" stroke="#051e2b"></path><path d="M1920 529L1920 370L1815.9 433Z" fill="#061b28" stroke="#061b28"></path><path d="M1788.9 141L1807.9 0L1615.7 0Z" fill="#01121e" stroke="#01121e"></path><path d="M1920 147L1807.9 0L1788.9 141Z" fill="#02131f" stroke="#02131f"></path><path d="M0 984L0 1080L105.1 1080Z" fill="#051824" stroke="#051824"></path><path d="M1920 781L1785.9 699L1752.9 777Z" fill="#051e2b" stroke="#051e2b"></path><path d="M1920 370L1920 251L1773.9 257Z" fill="#051824" stroke="#051824"></path><path d="M1920 924L1920 781L1772.9 909Z" fill="#05202d" stroke="#05202d"></path><path d="M1772.9 909L1920 781L1752.9 777Z" fill="#031521" stroke="#031521"></path><path d="M1920 251L1920 147L1788.9 141Z" fill="#051d29" stroke="#051d29"></path><path d="M1612.7 1080L1814.9 1080L1643.7 916Z" fill="#01121e" stroke="#01121e"></path><path d="M1814.9 1080L1920 924L1772.9 909Z" fill="#051d29" stroke="#051d29"></path><path d="M1920 147L1920 0L1807.9 0Z" fill="#041722" stroke="#041722"></path><path d="M1814.9 1080L1920 1080L1920 924Z" fill="#00101c" stroke="#00101c"></path></g></svg>